<?xml version="1.0" encoding="utf-8"?>
<!-- Svg Vector Icons : http://www.onlinewebfonts.com/icon -->
<!DOCTYPE svg PUBLIC "-//W3C//DTD SVG 1.1//EN" "http://www.w3.org/Graphics/SVG/1.1/DTD/svg11.dtd">
<svg version="1.1" xmlns="http://www.w3.org/2000/svg" xmlns:xlink="http://www.w3.org/1999/xlink" x="0px" y="0px" viewBox="0 0 1000 1000" enable-background="new 0 0 1000 1000" xml:space="preserve">
<metadata> Svg Vector Icons : http://www.onlinewebfonts.com/icon </metadata>
<g><path d="M286.1,422.2h-79.4c-16.2,0-29.4-13.2-29.4-29.4v-54.4c0-16.2,13.2-29.4,29.4-29.4h79.4c16.2,0,29.4,13.2,29.4,29.4v54.4C315.5,409,302.3,422.2,286.1,422.2z"/><path d="M455.2,422.2h-79.4c-16.2,0-29.4-13.2-29.4-29.4v-54.4c0-16.2,13.2-29.4,29.4-29.4h79.4c16.2,0,29.4,13.2,29.4,29.4v54.4C484.6,409,471.3,422.2,455.2,422.2z"/><path d="M624.2,422.2h-79.4c-16.2,0-29.4-13.2-29.4-29.4v-54.4c0-16.2,13.2-29.4,29.4-29.4h79.4c16.2,0,29.4,13.2,29.4,29.4v54.4C653.6,409,640.4,422.2,624.2,422.2z"/><path d="M793.2,422.2h-79.4c-16.2,0-29.4-13.2-29.4-29.4v-54.4c0-16.2,13.2-29.4,29.4-29.4h79.4c16.2,0,29.4,13.2,29.4,29.4v54.4C822.6,409,809.4,422.2,793.2,422.2z"/><path d="M305,573.6h-79.4c-16.2,0-29.4-13.2-29.4-29.4v-54.4c0-16.2,13.2-29.4,29.4-29.4H305c16.2,0,29.4,13.2,29.4,29.4v54.4C334.4,560.4,321.2,573.6,305,573.6z"/><path d="M461.5,573.6h-79.4c-16.2,0-29.4-13.2-29.4-29.4v-54.4c0-16.2,13.2-29.4,29.4-29.4h79.4c16.2,0,29.4,13.2,29.4,29.4v54.4C490.9,560.4,477.6,573.6,461.5,573.6z"/><path d="M617.9,573.6h-79.4c-16.2,0-29.4-13.2-29.4-29.4v-54.4c0-16.2,13.2-29.4,29.4-29.4h79.4c16.2,0,29.4,13.2,29.4,29.4v54.4C647.3,560.4,634.1,573.6,617.9,573.6z"/><path d="M774.4,573.6H695c-16.2,0-29.4-13.2-29.4-29.4v-54.4c0-16.2,13.2-29.4,29.4-29.4h79.4c16.2,0,29.4,13.2,29.4,29.4v54.4C803.8,560.4,790.6,573.6,774.4,573.6z"/><path d="M741.1,732.1H258.9c-16.2,0-29.4-13.2-29.4-29.4v-35.3c0-16.2,13.2-29.4,29.4-29.4h482.2c16.2,0,29.4,13.2,29.4,29.4v35.3C770.5,718.9,757.3,732.1,741.1,732.1z"/><path d="M500,39.4c62.2,0,122.5,12.2,179.3,36.2c54.8,23.2,104.1,56.4,146.4,98.7s75.5,91.6,98.7,146.4c24,56.8,36.2,117.1,36.2,179.3c0,62.2-12.2,122.5-36.2,179.3c-23.2,54.8-56.4,104.1-98.7,146.4s-91.6,75.5-146.4,98.7c-56.8,24-117.1,36.2-179.3,36.2c-62.2,0-122.5-12.2-179.3-36.2c-54.8-23.2-104.1-56.4-146.4-98.7s-75.5-91.6-98.7-146.4c-24-56.8-36.2-117.1-36.2-179.3c0-62.2,12.2-122.5,36.2-179.3c23.2-54.8,56.4-104.1,98.7-146.4s91.6-75.5,146.4-98.7C377.5,51.6,437.8,39.4,500,39.4 M500,10C229.4,10,10,229.4,10,500s219.4,490,490,490c270.6,0,490-219.4,490-490S770.6,10,500,10L500,10z"/></g>
</svg>